<svg xmlns="http://www.w3.org/2000/svg" xmlns:xlink="http://www.w3.org/1999/xlink" width="500" zoomAndPan="magnify" viewBox="0 0 375 374.999991" height="500" preserveAspectRatio="xMidYMid meet" version="1.0"><defs><g/></defs><g fill="#00fefb" fill-opacity="1"><g transform="translate(34.035439, 197.088809)"><g><path d="M 42.234375 -74.921875 C 47.753906 -74.921875 53.1875 -73.785156 58.53125 -71.515625 C 63.875 -69.253906 68.421875 -66.21875 72.171875 -62.40625 L 61.234375 -49.453125 C 58.828125 -52.421875 55.941406 -54.769531 52.578125 -56.5 C 49.222656 -58.238281 45.882812 -59.109375 42.5625 -59.109375 C 36.6875 -59.109375 31.765625 -57.035156 27.796875 -52.890625 C 23.835938 -48.753906 21.859375 -43.644531 21.859375 -37.5625 C 21.859375 -31.34375 23.835938 -26.144531 27.796875 -21.96875 C 31.765625 -17.789062 36.6875 -15.703125 42.5625 -15.703125 C 45.664062 -15.703125 48.898438 -16.476562 52.265625 -18.03125 C 55.628906 -19.59375 58.617188 -21.71875 61.234375 -24.40625 L 72.265625 -12.734375 C 68.234375 -8.628906 63.472656 -5.335938 57.984375 -2.859375 C 52.503906 -0.390625 47.039062 0.84375 41.59375 0.84375 C 30.414062 0.84375 21.113281 -2.796875 13.6875 -10.078125 C 6.257812 -17.367188 2.546875 -26.460938 2.546875 -37.359375 C 2.546875 -48.035156 6.328125 -56.960938 13.890625 -64.140625 C 21.460938 -71.328125 30.910156 -74.921875 42.234375 -74.921875 Z M 42.234375 -74.921875 "/></g></g></g><g fill="#00fefb" fill-opacity="1"><g transform="translate(107.467554, 197.088809)"><g><path d="M 56.78125 -13.6875 L 24.296875 -13.6875 L 18.890625 0 L -0.53125 0 L 31.515625 -74.28125 L 50.9375 -74.28125 L 82.25 0 L 62.078125 0 Z M 51.265625 -28.015625 L 40.640625 -55.5 L 29.828125 -28.015625 Z M 51.265625 -28.015625 "/></g></g></g><g fill="#00fefb" fill-opacity="1"><g transform="translate(189.176704, 197.088809)"><g><path d="M 35.96875 -75.140625 C 47.082031 -75.140625 56.847656 -72.378906 65.265625 -66.859375 L 58.15625 -52.109375 C 54.257812 -54.367188 50.082031 -56.222656 45.625 -57.671875 C 41.175781 -59.128906 37.429688 -59.859375 34.390625 -59.859375 C 28.941406 -59.859375 26.21875 -58.050781 26.21875 -54.4375 C 26.21875 -52.101562 27.5625 -50.226562 30.25 -48.8125 C 32.9375 -47.394531 36.207031 -46.175781 40.0625 -45.15625 C 43.914062 -44.132812 47.769531 -42.894531 51.625 -41.4375 C 55.476562 -39.988281 58.75 -37.632812 61.4375 -34.375 C 64.132812 -31.125 65.484375 -27.023438 65.484375 -22.078125 C 65.484375 -14.929688 62.6875 -9.359375 57.09375 -5.359375 C 51.507812 -1.359375 44.398438 0.640625 35.765625 0.640625 C 29.609375 0.640625 23.519531 -0.421875 17.5 -2.546875 C 11.488281 -4.671875 6.253906 -7.570312 1.796875 -11.25 L 9.125 -25.78125 C 12.875 -22.53125 17.296875 -19.859375 22.390625 -17.765625 C 27.484375 -15.679688 32.007812 -14.640625 35.96875 -14.640625 C 39.019531 -14.640625 41.394531 -15.1875 43.09375 -16.28125 C 44.789062 -17.382812 45.640625 -19 45.640625 -21.125 C 45.640625 -23.175781 44.664062 -24.890625 42.71875 -26.265625 C 40.769531 -27.640625 38.34375 -28.664062 35.4375 -29.34375 C 32.539062 -30.019531 29.394531 -30.921875 26 -32.046875 C 22.601562 -33.179688 19.453125 -34.421875 16.546875 -35.765625 C 13.648438 -37.109375 11.226562 -39.25 9.28125 -42.1875 C 7.34375 -45.125 6.375 -48.644531 6.375 -52.75 C 6.375 -59.539062 9.078125 -64.96875 14.484375 -69.03125 C 19.898438 -73.101562 27.0625 -75.140625 35.96875 -75.140625 Z M 35.96875 -75.140625 "/></g></g></g><g fill="#00fefb" fill-opacity="1"><g transform="translate(257.515261, 197.088809)"><g><path d="M 75.984375 0 L 57.09375 0 L 57.09375 -28.859375 L 26.3125 -28.859375 L 26.3125 0 L 7.421875 0 L 7.421875 -74.28125 L 26.3125 -74.28125 L 26.3125 -43.71875 L 57.09375 -43.71875 L 57.09375 -74.28125 L 75.984375 -74.28125 Z M 75.984375 0 "/></g></g></g><g fill="#ffffff" fill-opacity="1"><g transform="translate(39.882023, 257.03519)"><g><path d="M 34.015625 0 L 29.546875 0 L 29.515625 -21.375 L 20.484375 -2.984375 L 17.328125 -2.984375 L 8.296875 -21.375 L 8.296875 0 L 3.765625 0 L 3.765625 -28.609375 L 9.484375 -28.609375 L 18.921875 -9.609375 L 28.328125 -28.609375 L 34.015625 -28.609375 Z M 34.015625 0 "/></g></g></g><g fill="#ffffff" fill-opacity="1"><g transform="translate(93.503937, 257.03519)"><g><path d="M 22.234375 -6.453125 L 7.8125 -6.453125 L 5.0625 0 L 0.046875 0 L 12.671875 -28.609375 L 17.609375 -28.609375 L 30.125 0 L 24.96875 0 Z M 20.390625 -10.75 L 15 -23.46875 L 9.609375 -10.75 Z M 20.390625 -10.75 "/></g></g></g><g fill="#ffffff" fill-opacity="1"><g transform="translate(139.483907, 257.03519)"><g><path d="M 16.4375 -28.734375 C 18.445312 -28.734375 20.410156 -28.34375 22.328125 -27.5625 C 24.253906 -26.789062 25.910156 -25.710938 27.296875 -24.328125 L 24.484375 -20.8125 C 23.453125 -21.925781 22.226562 -22.804688 20.8125 -23.453125 C 19.394531 -24.109375 17.960938 -24.4375 16.515625 -24.4375 C 13.648438 -24.4375 11.226562 -23.460938 9.25 -21.515625 C 7.28125 -19.566406 6.296875 -17.191406 6.296875 -14.390625 C 6.296875 -11.554688 7.28125 -9.164062 9.25 -7.21875 C 11.226562 -5.269531 13.648438 -4.296875 16.515625 -4.296875 C 19.484375 -4.296875 22.140625 -5.425781 24.484375 -7.6875 L 27.34375 -4.5 C 25.875 -3.050781 24.15625 -1.90625 22.1875 -1.0625 C 20.226562 -0.21875 18.253906 0.203125 16.265625 0.203125 C 12.066406 0.203125 8.535156 -1.191406 5.671875 -3.984375 C 2.816406 -6.773438 1.390625 -10.226562 1.390625 -14.34375 C 1.390625 -18.40625 2.835938 -21.816406 5.734375 -24.578125 C 8.640625 -27.347656 12.207031 -28.734375 16.4375 -28.734375 Z M 16.4375 -28.734375 "/></g></g></g><g fill="#ffffff" fill-opacity="1"><g transform="translate(183.788366, 257.03519)"><g><path d="M 28.578125 0 L 23.75 0 L 23.75 -11.859375 L 8.578125 -11.859375 L 8.578125 0 L 3.765625 0 L 3.765625 -28.609375 L 8.578125 -28.609375 L 8.578125 -16.1875 L 23.75 -16.1875 L 23.75 -28.609375 L 28.578125 -28.609375 Z M 28.578125 0 "/></g></g></g><g fill="#ffffff" fill-opacity="1"><g transform="translate(231.93423, 257.03519)"><g><path d="M 8.578125 0 L 3.765625 0 L 3.765625 -28.609375 L 8.578125 -28.609375 Z M 8.578125 0 "/></g></g></g><g fill="#ffffff" fill-opacity="1"><g transform="translate(260.096588, 257.03519)"><g><path d="M 28.578125 0 L 23.828125 0 L 8.578125 -20.515625 L 8.578125 0 L 3.765625 0 L 3.765625 -28.609375 L 8.5 -28.609375 L 23.828125 -8.046875 L 23.828125 -28.609375 L 28.578125 -28.609375 Z M 28.578125 0 "/></g></g></g><g fill="#ffffff" fill-opacity="1"><g transform="translate(308.283307, 257.03519)"><g><path d="M 24.203125 -24.28125 L 8.578125 -24.28125 L 8.578125 -16.546875 L 22.5625 -16.546875 L 22.5625 -12.21875 L 8.578125 -12.21875 L 8.578125 -4.328125 L 24.6875 -4.328125 L 24.6875 0 L 3.765625 0 L 3.765625 -28.609375 L 24.203125 -28.609375 Z M 24.203125 -24.28125 "/></g></g></g></svg>