<svg width="32" height="108" viewBox="0 0 32 108" fill="none" xmlns="http://www.w3.org/2000/svg">
<circle cx="16" cy="12" r="12" fill="#022D4F"/>
<circle cx="16" cy="34" r="6" fill="#022D4F"/>
<circle cx="16" cy="50" r="6" fill="url(#paint0_linear_57_19)"/>
<circle cx="16" cy="66" r="6" fill="#7EC242"/>
<path d="M27.9902 89.3072C27.9944 87.7329 27.6885 86.1732 27.0899 84.7171C26.4914 83.261 25.6119 81.9371 24.5016 80.821C22.2595 78.5668 19.2136 77.2956 16.0342 77.2872C12.8548 77.2787 9.80223 78.5335 7.54804 80.7757C5.29386 83.0179 4.0227 86.0637 4.01421 89.2432C3.98606 92.9368 5.05829 96.5552 7.09426 99.6371C9.13023 102.719 12.0377 105.125 15.4462 106.548C15.6204 106.627 15.8096 106.668 16.0009 106.667C16.1935 106.667 16.384 106.627 16.5595 106.547C19.9576 105.128 22.858 102.732 24.8929 99.663C26.9279 96.5938 28.0058 92.9896 27.9902 89.3072ZM16.0009 103.867C13.1901 102.63 10.8066 100.591 9.14844 98.006C7.49026 95.421 6.63103 92.4046 6.67821 89.3338C6.67821 88.1095 6.91935 86.8973 7.38786 85.7662C7.85637 84.6351 8.54307 83.6074 9.40876 82.7417C10.2744 81.876 11.3022 81.1893 12.4332 80.7208C13.5643 80.2523 14.7766 80.0112 16.0009 80.0112C17.2251 80.0112 18.4374 80.2523 19.5685 80.7208C20.6996 81.1893 21.7273 81.876 22.593 82.7417C23.4587 83.6074 24.1454 84.6351 24.6139 85.7662C25.0824 86.8973 25.3235 88.1095 25.3235 89.3338C25.3235 89.3618 25.3235 89.3938 25.3235 89.4205C25.3559 92.477 24.4895 95.4757 22.8321 98.0441C21.1747 100.612 18.7993 102.637 16.0009 103.867ZM16.0009 84.0005C14.946 84.0005 13.9149 84.3133 13.0378 84.8993C12.1608 85.4853 11.4772 86.3183 11.0735 87.2928C10.6699 88.2674 10.5642 89.3397 10.77 90.3743C10.9758 91.4089 11.4838 92.3592 12.2296 93.1051C12.9755 93.8509 13.9258 94.3589 14.9604 94.5647C15.995 94.7705 17.0673 94.6648 18.0419 94.2612C19.0164 93.8575 19.8493 93.1739 20.4354 92.2969C21.0214 91.4198 21.3342 90.3887 21.3342 89.3338C21.3342 87.9193 20.7723 86.5628 19.7721 85.5626C18.7719 84.5624 17.4154 84.0005 16.0009 84.0005ZM16.0009 92.0005C15.4735 92.0005 14.9579 91.8441 14.5194 91.5511C14.0808 91.2581 13.739 90.8416 13.5372 90.3543C13.3354 89.867 13.2826 89.3309 13.3855 88.8136C13.4883 88.2963 13.7423 87.8211 14.1153 87.4482C14.4882 87.0753 14.9634 86.8213 15.4806 86.7184C15.9979 86.6155 16.5341 86.6683 17.0214 86.8701C17.5086 87.072 17.9251 87.4138 18.2181 87.8523C18.5111 88.2908 18.6675 88.8064 18.6675 89.3338C18.6675 90.0411 18.3866 90.7193 17.8865 91.2194C17.3864 91.7195 16.7081 92.0005 16.0009 92.0005Z" fill="#7EC242"/>
<defs>
<linearGradient id="paint0_linear_57_19" x1="16" y1="44" x2="16" y2="56" gradientUnits="userSpaceOnUse">
<stop stop-color="#022D4F"/>
<stop offset="1" stop-color="#7EC242"/>
</linearGradient>
</defs>
</svg>
